HIERARCHY
ROOT Hips
{
	OFFSET 0.000000 0.000000 0.000000
	CHANNELS 6 Xposition Yposition Zposition Zrotation Yrotation Xrotation 
	JOINT LHipJoint
	{
		OFFSET 0.000000 0.000000 0.000000
		CHANNELS 3 Zrotation Yrotation Xrotation
		JOINT LeftUpLeg
		{
			OFFSET 1.363060 -1.794630 0.839290
			CHANNELS 3 Zrotation Yrotation Xrotation
			JOINT LeftLeg
			{
				OFFSET 2.448110 -6.726130 0.000000
				CHANNELS 3 Zrotation Yrotation Xrotation
				JOINT LeftFoot
				{
					OFFSET 2.562200 -7.039590 0.000000
					CHANNELS 3 Zrotation Yrotation Xrotation
					JOINT LeftToeBase
					{
						OFFSET 0.157640 -0.433110 2.322550
						CHANNELS 3 Zrotation Yrotation Xrotation
						End Site
						{
							OFFSET 0.000000 0.000000 0.000000
						}
					}
				}
			}
		}
	}
	JOINT RHipJoint
	{
		OFFSET 0.000000 0.000000 0.000000
		CHANNELS 3 Zrotation Yrotation Xrotation
		JOINT RightUpLeg
		{
			OFFSET -1.305520 -1.794630 0.839290
			CHANNELS 3 Zrotation Yrotation Xrotation
			JOINT RightLeg
			{
				OFFSET -2.542530 -6.985550 0.000000
				CHANNELS 3 Zrotation Yrotation Xrotation
				JOINT RightFoot
				{
					OFFSET -2.568260 -7.056230 0.000000
					CHANNELS 3 Zrotation Yrotation Xrotation
					JOINT RightToeBase
					{
						OFFSET -0.164730 -0.452590 2.363150
						CHANNELS 3 Zrotation Yrotation Xrotation
						End Site
						{
							OFFSET 0.000000 0.000000 0.000000
						}
					}
				}
			}
		}
	}
}
MOTION
Frames: 25
Frame Time: 0.008333
-11.507224 16.654488 -0.172951 56.563924 86.579032 65.702669 -11.762160 5.013811 0.519694 -6.577654 6.823425 6.205720 -1.245782 1.610760 23.692787 0.213469 -0.911511 5.464643 -0.150400 -0.000000 -82.504300 8.506407 -0.187011 3.462591 4.144039 4.687585 -39.365183 1.302749 -1.547374 27.961369 -0.526301 -2.043455 0.962281 -0.802300 -0.000000 -29.199700
-11.332675 16.631996 -0.149591 48.585728 86.672119 57.576804 -11.957685 5.171646 0.520618 -5.759943 7.264082 5.570903 -1.104709 1.791143 25.678369 0.229868 -1.529236 6.915216 -0.345100 -0.000001 -84.634300 8.449166 -0.148732 3.378570 4.774000 4.868070 -39.492496 1.237456 -1.668342 30.105928 -0.585673 -2.170303 -0.191292 -0.744401 0.000000 -28.828200
-11.161822 16.608046 -0.127225 37.330207 86.760173 46.166902 -12.077843 5.351244 0.484382 -4.822681 7.793733 4.806745 -0.979946 1.993987 27.872325 0.263865 -2.219166 8.417722 -0.598700 0.000001 -85.931500 8.472290 -0.047012 3.280543 5.492178 5.088256 -39.490006 1.178840 -1.762646 32.132901 -0.651345 -2.314775 -1.477061 -0.673700 0.000000 -28.371000
-10.995233 16.582200 -0.105404 20.852048 86.939081 29.526512 -11.963207 5.516489 0.398734 -3.721222 8.354828 3.944587 -0.866421 2.212399 30.282315 0.317349 -2.885806 9.918801 -0.888100 0.000000 -86.279400 8.696103 0.109108 3.185861 6.341261 5.298828 -39.359348 1.139136 -1.855443 34.002532 -0.726511 -2.476573 -2.870295 -0.585800 -0.000000 -27.894100
-10.833286 16.554085 -0.083949 -4.328236 87.703779 4.137794 -11.519942 5.393299 0.248472 -2.365276 8.773055 3.062979 -0.641536 2.337531 32.997352 0.371445 -3.461137 11.366527 -1.174801 0.000000 -85.636300 9.117580 0.030993 3.158818 7.311334 5.300304 -39.167472 1.184413 -2.062584 35.627003 -0.831904 -2.708027 -4.376419 -0.480300 0.000000 -27.424600
-10.676199 16.523425 -0.062341 -37.633730 89.065188 -29.477026 -11.688900 4.823113 0.122502 -1.154049 8.972774 2.160212 -0.191274 2.253492 35.983293 0.432538 -3.797589 12.729100 -1.402400 -0.000000 -84.009701 8.913835 -0.608720 3.126645 8.026475 4.892902 -38.980757 1.330421 -2.376389 37.094152 -0.948213 -2.925875 -5.991555 -0.358500 0.000000 -26.995400
-10.523960 16.490179 -0.040537 -68.236813 89.722126 -60.371768 -12.463294 4.539522 0.056634 -0.279521 9.322197 1.066125 0.131556 2.272963 38.975692 0.552608 -3.683608 13.887866 -1.511400 0.000000 -81.467400 8.276540 -0.999116 2.935600 8.590533 4.534002 -38.636068 1.399607 -2.506252 38.582340 -1.021331 -2.990907 -7.574254 -0.225300 -0.000000 -26.612000
-10.376487 16.454437 -0.018174 -88.807327 89.786830 -81.209625 -13.052071 4.481962 -0.027308 0.576138 9.730175 -0.149294 0.314789 2.420335 42.023048 0.707073 -3.082595 14.744751 -1.445800 0.000000 -78.103700 7.856177 -1.081005 2.679851 9.263893 4.235361 -38.159835 1.417832 -2.537504 39.986598 -1.079496 -3.000836 -9.095090 -0.085000 -0.000000 -26.287900
-10.233476 16.416566 0.004803 -102.048564 89.585510 -94.718880 -13.446976 4.446636 -0.133129 1.454976 10.078216 -1.434552 0.459040 2.612009 45.163865 0.877392 -1.990619 15.246892 -1.174200 -0.000000 -74.044900 7.606878 -1.081559 2.411475 10.013929 3.880894 -37.618572 1.432469 -2.554209 41.265239 -1.138930 -3.009251 -10.553141 0.057300 -0.000000 -26.015900
-10.094676 16.377173 0.028791 -111.051273 89.248280 -103.996751 -13.726065 4.387877 -0.249965 2.299888 10.332594 -2.767723 0.595292 2.823733 48.366186 1.059969 -0.418464 15.352787 -0.696100 0.000000 -69.423500 7.450171 -1.068310 2.138215 10.773952 3.442889 -37.044332 1.449206 -2.572614 42.435621 -1.200525 -3.024376 -11.936190 0.198600 0.000000 -25.803700
-9.959429 16.337020 0.053274 -117.431305 88.814375 -110.651157 -13.939972 4.297510 -0.369715 3.101878 10.501603 -4.152963 0.734079 3.047625 51.591398 1.253700 1.556781 15.036159 -0.056600 -0.000000 -64.394100 7.338970 -1.064138 1.870365 11.531249 2.958206 -36.454412 1.467387 -2.594105 43.501569 -1.267837 -3.073038 -13.230223 0.337300 0.000000 -25.609300
-9.827282 16.297105 0.078471 -122.119372 88.329803 -115.609428 -14.107189 4.181057 -0.488157 3.822615 10.589431 -5.577236 0.877877 3.280185 54.786156 1.457504 3.830770 14.296937 0.672500 0.000000 -59.107000 7.259346 -1.069905 1.612911 12.251899 2.454477 -35.861564 1.482741 -2.618440 44.479549 -1.341091 -3.163759 -14.431670 0.474400 -0.000001 -25.432700
-9.697603 16.258466 0.103878 -125.552243 87.814873 -119.298409 -14.244445 4.041161 -0.601822 4.460124 10.613587 -7.041127 1.028192 3.516108 57.904770 1.668050 6.258167 13.159946 1.396900 0.000000 -53.723100 7.196067 -1.089377 1.376544 12.933767 1.981782 -35.272603 1.494121 -2.644783 45.369295 -1.423931 -3.318934 -15.543003 0.613100 -0.000000 -25.228301
-9.569795 16.222171 0.129160 -128.035460 87.294472 -122.015816 -14.360144 3.882196 -0.708619 5.005617 10.589560 -8.540279 1.183902 3.750003 60.901192 1.879747 8.690381 11.675753 2.025700 0.000000 -48.394900 7.141739 -1.121839 1.169264 13.570401 1.581265 -34.690686 1.500639 -2.672175 46.171554 -1.518686 -3.550997 -16.573356 0.757700 0.000000 -24.966900
-9.443447 16.189266 0.154256 -129.829263 86.796210 -124.017170 -14.455970 3.710102 -0.807506 5.442812 10.529206 -10.066285 1.341763 3.976567 63.733001 2.085061 10.993803 9.913185 2.488100 -0.000000 -43.260300 7.095756 -1.163000 0.995574 14.148735 1.279872 -34.114954 1.501723 -2.699402 46.887474 -1.625955 -3.861281 -17.535540 0.912200 0.000000 -24.639500
-9.318149 16.160673 0.178885 -131.088479 86.336821 -125.451876 -14.534353 3.528510 -0.897512 5.768190 10.445511 -11.615098 1.497690 4.190293 66.367024 2.274698 13.053599 7.946751 2.740600 -0.000000 -38.408100 7.055386 -1.210759 0.859375 14.667520 1.099756 -33.541578 1.498476 -2.725193 47.511864 -1.746321 -4.248579 -18.442375 1.080300 0.000001 -24.229801
-9.193465 16.137156 0.202665 -131.908995 85.924131 -126.411117 -14.598224 3.339184 -0.977119 5.986948 10.348278 -13.185544 1.646865 4.386210 68.777215 2.439107 14.783271 5.852310 2.771299 -0.000000 -33.913400 7.016282 -1.264278 0.762857 15.134031 1.054026 -32.965063 1.493128 -2.748127 48.034291 -1.880014 -4.708096 -19.304785 1.264700 -0.000000 -23.713601
-9.069183 16.119336 0.225451 -132.408772 85.566028 -127.012376 -14.646583 3.145322 -1.045087 6.096496 10.240916 -14.770832 1.783467 4.560493 70.940778 2.570188 16.132076 3.702889 2.599300 0.000000 -29.839600 6.978786 -1.320574 0.703887 15.547984 1.136648 -32.378053 1.487568 -2.766767 48.446929 -2.024795 -5.223712 -20.129654 1.465500 0.000000 -23.092001
-8.945166 16.107581 0.247491 -132.729613 85.271460 -127.401240 -14.674868 2.951765 -1.101385 6.085948 10.121486 -16.358642 1.901010 4.710753 72.839670 2.661691 17.079922 1.548327 2.261500 0.000000 -26.103800 6.948207 -1.374588 0.675739 15.898478 1.322590 -31.772777 1.483092 -2.779844 48.746075 -2.175683 -5.768776 -20.918346 1.679200 -0.000000 -22.400100
-8.821260 16.102194 0.268557 -132.924335 85.033032 -127.632327 -14.684644 2.759419 -1.143064 5.966510 9.986109 -17.943381 1.994670 4.834692 74.460187 2.711055 17.632512 -0.548213 1.812300 -0.000000 -22.785501 6.921817 -1.426450 0.673745 16.196030 1.591080 -31.141229 1.482310 -2.785955 48.918505 -2.329170 -6.324324 -21.666015 1.901600 -0.000001 -21.642900
-8.697356 16.103264 0.288699 -133.082935 84.847095 -127.801193 -14.674187 2.571208 -1.167894 5.739912 9.826559 -19.513287 2.060088 4.931156 75.791313 2.719155 17.822715 -2.541550 1.308400 0.000000 -19.907200 6.901777 -1.474343 0.690098 16.439646 1.907790 -30.474934 1.486828 -2.783814 48.955933 -2.479637 -6.864734 -22.363342 2.125299 0.000000 -20.846000
-8.573320 16.110735 0.308072 -133.296589 84.710637 -128.005546 -14.641526 2.390031 -1.175243 5.406088 9.634940 -21.053385 2.094095 5.000033 76.826008 2.690638 17.706118 -4.401177 0.799400 -0.000000 -17.416000 6.891313 -1.516099 0.715118 16.624817 2.234128 -29.766342 1.497695 -2.772418 48.853120 -2.620649 -7.363404 -22.997522 2.340800 0.000000 -20.065500
-8.448969 16.124541 0.326619 -133.616530 84.615330 -128.302711 -14.587205 2.217115 -1.163001 4.974180 9.404453 -22.551161 2.095778 5.041173 77.560510 2.633764 17.355475 -6.095449 0.326400 -0.000000 -15.355300 6.890346 -1.552087 0.741902 16.755058 2.538504 -29.007815 1.516128 -2.750643 48.600874 -2.747235 -7.801418 -23.553937 2.538601 0.000000 -19.333100
-8.324055 16.144498 0.344268 -134.087156 84.554480 -128.742356 -14.511586 2.053261 -1.130746 4.451893 9.132282 -23.993688 2.065660 5.055074 77.995416 2.559286 16.855138 -7.609684 -0.086600 0.000000 -13.717200 6.899183 -1.582625 0.763923 16.831648 2.792570 -28.192369 1.542882 -2.717518 48.191749 -2.855116 -8.163704 -24.019376 2.709800 0.000000 -18.683400
-8.198309 16.170428 0.360926 -134.736348 84.522530 -129.358957 -14.414992 1.899175 -1.078998 3.848027 8.820107 -25.366142 2.005454 5.042456 78.134582 2.479046 16.291942 -8.944678 -0.432100 0.000000 -12.461500 6.917995 -1.608528 0.776775 16.855971 2.975267 -27.312044 1.578366 -2.672154 47.618490 -2.941348 -8.441217 -24.383302 2.847000 0.000001 -18.146599
